<mxfile host="app.diagrams.net" agent="Mozilla/5.0 (Windows NT 10.0; Win64; x64) AppleWebKit/537.36 (KHTML, like Gecko) Chrome/133.0.0.0 Safari/537.36" version="26.0.11">
  <diagram id="R2lEEEUBdFMjLlhIrx00" name="Page-1">
    <mxGraphModel dx="2074" dy="1146" grid="1" gridSize="10" guides="1" tooltips="1" connect="1" arrows="1" fold="1" page="1" pageScale="1" pageWidth="850" pageHeight="1100" math="0" shadow="0" extFonts="Permanent Marker^https://fonts.googleapis.com/css?family=Permanent+Marker">
      <root>
        <mxCell id="0" />
        <mxCell id="1" parent="0" />
        <mxCell id="oekWoN-RT_hTgnHbILEL-1" value="고객" style="whiteSpace=wrap;html=1;align=center;" vertex="1" parent="1">
          <mxGeometry x="380" y="390" width="100" height="40" as="geometry" />
        </mxCell>
        <mxCell id="oekWoN-RT_hTgnHbILEL-3" value="주유" style="shape=rhombus;perimeter=rhombusPerimeter;whiteSpace=wrap;html=1;align=center;" vertex="1" parent="1">
          <mxGeometry x="370" y="240" width="120" height="60" as="geometry" />
        </mxCell>
        <mxCell id="oekWoN-RT_hTgnHbILEL-5" value="공급자" style="whiteSpace=wrap;html=1;align=center;" vertex="1" parent="1">
          <mxGeometry x="1010" y="250" width="100" height="40" as="geometry" />
        </mxCell>
        <mxCell id="oekWoN-RT_hTgnHbILEL-7" value="&lt;span style=&quot;border-bottom: 1px dotted&quot;&gt;고객번호&lt;/span&gt;" style="ellipse;whiteSpace=wrap;html=1;align=center;" vertex="1" parent="1">
          <mxGeometry x="190" y="340" width="100" height="40" as="geometry" />
        </mxCell>
        <mxCell id="oekWoN-RT_hTgnHbILEL-8" value="이름" style="ellipse;whiteSpace=wrap;html=1;align=center;" vertex="1" parent="1">
          <mxGeometry x="190" y="390" width="100" height="40" as="geometry" />
        </mxCell>
        <mxCell id="oekWoN-RT_hTgnHbILEL-9" value="주유 가격" style="ellipse;whiteSpace=wrap;html=1;align=center;" vertex="1" parent="1">
          <mxGeometry x="450" y="170" width="100" height="40" as="geometry" />
        </mxCell>
        <mxCell id="oekWoN-RT_hTgnHbILEL-10" value="연락처" style="ellipse;whiteSpace=wrap;html=1;align=center;" vertex="1" parent="1">
          <mxGeometry x="190" y="440" width="100" height="40" as="geometry" />
        </mxCell>
        <mxCell id="oekWoN-RT_hTgnHbILEL-11" value="" style="endArrow=none;html=1;rounded=0;" edge="1" parent="1" source="oekWoN-RT_hTgnHbILEL-1" target="oekWoN-RT_hTgnHbILEL-7">
          <mxGeometry width="50" height="50" relative="1" as="geometry">
            <mxPoint x="140" y="390" as="sourcePoint" />
            <mxPoint x="190" y="340" as="targetPoint" />
          </mxGeometry>
        </mxCell>
        <mxCell id="oekWoN-RT_hTgnHbILEL-12" value="" style="endArrow=none;html=1;rounded=0;" edge="1" parent="1" source="oekWoN-RT_hTgnHbILEL-1" target="oekWoN-RT_hTgnHbILEL-8">
          <mxGeometry width="50" height="50" relative="1" as="geometry">
            <mxPoint x="150" y="400" as="sourcePoint" />
            <mxPoint x="200" y="350" as="targetPoint" />
          </mxGeometry>
        </mxCell>
        <mxCell id="oekWoN-RT_hTgnHbILEL-13" value="" style="endArrow=none;html=1;rounded=0;" edge="1" parent="1" source="oekWoN-RT_hTgnHbILEL-1" target="oekWoN-RT_hTgnHbILEL-10">
          <mxGeometry width="50" height="50" relative="1" as="geometry">
            <mxPoint x="160" y="410" as="sourcePoint" />
            <mxPoint x="210" y="360" as="targetPoint" />
          </mxGeometry>
        </mxCell>
        <mxCell id="oekWoN-RT_hTgnHbILEL-15" value="주유기" style="whiteSpace=wrap;html=1;align=center;" vertex="1" parent="1">
          <mxGeometry x="590" y="250" width="100" height="40" as="geometry" />
        </mxCell>
        <mxCell id="oekWoN-RT_hTgnHbILEL-16" value="주유기 소유자" style="shape=ext;margin=3;double=1;whiteSpace=wrap;html=1;align=center;" vertex="1" parent="1">
          <mxGeometry x="590" y="530" width="100" height="40" as="geometry" />
        </mxCell>
        <mxCell id="oekWoN-RT_hTgnHbILEL-20" value="결제 방법" style="ellipse;whiteSpace=wrap;html=1;align=center;" vertex="1" parent="1">
          <mxGeometry x="190" y="170" width="100" height="40" as="geometry" />
        </mxCell>
        <mxCell id="oekWoN-RT_hTgnHbILEL-21" value="주유한 시간" style="ellipse;whiteSpace=wrap;html=1;align=center;" vertex="1" parent="1">
          <mxGeometry x="190" y="250" width="100" height="40" as="geometry" />
        </mxCell>
        <mxCell id="oekWoN-RT_hTgnHbILEL-22" value="날짜" style="ellipse;whiteSpace=wrap;html=1;align=center;" vertex="1" parent="1">
          <mxGeometry x="320" y="170" width="100" height="40" as="geometry" />
        </mxCell>
        <mxCell id="oekWoN-RT_hTgnHbILEL-23" value="사은품" style="whiteSpace=wrap;html=1;align=center;" vertex="1" parent="1">
          <mxGeometry x="380" y="670" width="100" height="40" as="geometry" />
        </mxCell>
        <mxCell id="oekWoN-RT_hTgnHbILEL-25" value="" style="endArrow=none;html=1;rounded=0;" edge="1" parent="1" source="oekWoN-RT_hTgnHbILEL-3" target="oekWoN-RT_hTgnHbILEL-9">
          <mxGeometry width="50" height="50" relative="1" as="geometry">
            <mxPoint x="400" y="610" as="sourcePoint" />
            <mxPoint x="450" y="560" as="targetPoint" />
          </mxGeometry>
        </mxCell>
        <mxCell id="oekWoN-RT_hTgnHbILEL-26" value="" style="endArrow=none;html=1;rounded=0;" edge="1" parent="1" source="oekWoN-RT_hTgnHbILEL-3" target="oekWoN-RT_hTgnHbILEL-22">
          <mxGeometry width="50" height="50" relative="1" as="geometry">
            <mxPoint x="400" y="610" as="sourcePoint" />
            <mxPoint x="450" y="560" as="targetPoint" />
          </mxGeometry>
        </mxCell>
        <mxCell id="oekWoN-RT_hTgnHbILEL-27" value="" style="endArrow=none;html=1;rounded=0;" edge="1" parent="1" source="oekWoN-RT_hTgnHbILEL-3" target="oekWoN-RT_hTgnHbILEL-20">
          <mxGeometry width="50" height="50" relative="1" as="geometry">
            <mxPoint x="400" y="610" as="sourcePoint" />
            <mxPoint x="450" y="560" as="targetPoint" />
          </mxGeometry>
        </mxCell>
        <mxCell id="oekWoN-RT_hTgnHbILEL-28" value="" style="endArrow=none;html=1;rounded=0;" edge="1" parent="1" source="oekWoN-RT_hTgnHbILEL-3" target="oekWoN-RT_hTgnHbILEL-21">
          <mxGeometry width="50" height="50" relative="1" as="geometry">
            <mxPoint x="400" y="610" as="sourcePoint" />
            <mxPoint x="450" y="560" as="targetPoint" />
          </mxGeometry>
        </mxCell>
        <mxCell id="oekWoN-RT_hTgnHbILEL-29" value="연락처" style="ellipse;whiteSpace=wrap;html=1;align=center;" vertex="1" parent="1">
          <mxGeometry x="650" y="600" width="100" height="40" as="geometry" />
        </mxCell>
        <mxCell id="oekWoN-RT_hTgnHbILEL-30" value="가격" style="ellipse;whiteSpace=wrap;html=1;align=center;" vertex="1" parent="1">
          <mxGeometry x="250" y="610" width="100" height="40" as="geometry" />
        </mxCell>
        <mxCell id="oekWoN-RT_hTgnHbILEL-31" value="" style="endArrow=none;html=1;rounded=0;" edge="1" parent="1" source="oekWoN-RT_hTgnHbILEL-3" target="oekWoN-RT_hTgnHbILEL-15">
          <mxGeometry relative="1" as="geometry">
            <mxPoint x="340" y="580" as="sourcePoint" />
            <mxPoint x="500" y="580" as="targetPoint" />
          </mxGeometry>
        </mxCell>
        <mxCell id="oekWoN-RT_hTgnHbILEL-32" value="M" style="resizable=0;html=1;whiteSpace=wrap;align=right;verticalAlign=bottom;" connectable="0" vertex="1" parent="oekWoN-RT_hTgnHbILEL-31">
          <mxGeometry x="1" relative="1" as="geometry">
            <mxPoint x="-50" as="offset" />
          </mxGeometry>
        </mxCell>
        <mxCell id="oekWoN-RT_hTgnHbILEL-33" value="" style="endArrow=none;html=1;rounded=0;" edge="1" parent="1" source="oekWoN-RT_hTgnHbILEL-3" target="oekWoN-RT_hTgnHbILEL-1">
          <mxGeometry relative="1" as="geometry">
            <mxPoint x="340" y="580" as="sourcePoint" />
            <mxPoint x="270" y="330" as="targetPoint" />
          </mxGeometry>
        </mxCell>
        <mxCell id="oekWoN-RT_hTgnHbILEL-34" value="N" style="resizable=0;html=1;whiteSpace=wrap;align=right;verticalAlign=bottom;" connectable="0" vertex="1" parent="oekWoN-RT_hTgnHbILEL-33">
          <mxGeometry x="1" relative="1" as="geometry">
            <mxPoint x="-10" y="-40" as="offset" />
          </mxGeometry>
        </mxCell>
        <mxCell id="oekWoN-RT_hTgnHbILEL-36" value="" style="endArrow=none;html=1;rounded=0;" edge="1" parent="1" source="oekWoN-RT_hTgnHbILEL-15" target="oekWoN-RT_hTgnHbILEL-44">
          <mxGeometry width="50" height="50" relative="1" as="geometry">
            <mxPoint x="230" y="260" as="sourcePoint" />
            <mxPoint x="657" y="170" as="targetPoint" />
          </mxGeometry>
        </mxCell>
        <mxCell id="oekWoN-RT_hTgnHbILEL-37" value="소유" style="shape=rhombus;perimeter=rhombusPerimeter;whiteSpace=wrap;html=1;align=center;" vertex="1" parent="1">
          <mxGeometry x="580" y="380" width="120" height="60" as="geometry" />
        </mxCell>
        <mxCell id="oekWoN-RT_hTgnHbILEL-38" value="" style="shape=link;html=1;rounded=0;" edge="1" parent="1" source="oekWoN-RT_hTgnHbILEL-37" target="oekWoN-RT_hTgnHbILEL-16">
          <mxGeometry relative="1" as="geometry">
            <mxPoint x="340" y="580" as="sourcePoint" />
            <mxPoint x="500" y="580" as="targetPoint" />
          </mxGeometry>
        </mxCell>
        <mxCell id="oekWoN-RT_hTgnHbILEL-39" value="1" style="resizable=0;html=1;whiteSpace=wrap;align=right;verticalAlign=bottom;" connectable="0" vertex="1" parent="oekWoN-RT_hTgnHbILEL-38">
          <mxGeometry x="1" relative="1" as="geometry">
            <mxPoint x="-10" y="-10" as="offset" />
          </mxGeometry>
        </mxCell>
        <mxCell id="oekWoN-RT_hTgnHbILEL-42" value="" style="shape=link;html=1;rounded=0;" edge="1" parent="1" source="oekWoN-RT_hTgnHbILEL-37" target="oekWoN-RT_hTgnHbILEL-15">
          <mxGeometry relative="1" as="geometry">
            <mxPoint x="340" y="580" as="sourcePoint" />
            <mxPoint x="500" y="580" as="targetPoint" />
          </mxGeometry>
        </mxCell>
        <mxCell id="oekWoN-RT_hTgnHbILEL-43" value="N" style="resizable=0;html=1;whiteSpace=wrap;align=right;verticalAlign=bottom;" connectable="0" vertex="1" parent="oekWoN-RT_hTgnHbILEL-42">
          <mxGeometry x="1" relative="1" as="geometry">
            <mxPoint x="-10" y="30" as="offset" />
          </mxGeometry>
        </mxCell>
        <mxCell id="oekWoN-RT_hTgnHbILEL-44" value="주유기 번호" style="ellipse;whiteSpace=wrap;html=1;align=center;fontStyle=4;" vertex="1" parent="1">
          <mxGeometry x="590" y="180" width="100" height="40" as="geometry" />
        </mxCell>
        <mxCell id="oekWoN-RT_hTgnHbILEL-45" value="공급" style="shape=rhombus;perimeter=rhombusPerimeter;whiteSpace=wrap;html=1;align=center;" vertex="1" parent="1">
          <mxGeometry x="790" y="240" width="120" height="60" as="geometry" />
        </mxCell>
        <mxCell id="oekWoN-RT_hTgnHbILEL-49" value="상품종류" style="ellipse;whiteSpace=wrap;html=1;align=center;fontStyle=4;" vertex="1" parent="1">
          <mxGeometry x="250" y="670" width="100" height="40" as="geometry" />
        </mxCell>
        <mxCell id="oekWoN-RT_hTgnHbILEL-54" value="" style="endArrow=none;html=1;rounded=0;" edge="1" parent="1" source="oekWoN-RT_hTgnHbILEL-23" target="oekWoN-RT_hTgnHbILEL-49">
          <mxGeometry width="50" height="50" relative="1" as="geometry">
            <mxPoint x="390" y="437" as="sourcePoint" />
            <mxPoint x="298" y="467" as="targetPoint" />
          </mxGeometry>
        </mxCell>
        <mxCell id="oekWoN-RT_hTgnHbILEL-55" value="" style="endArrow=none;html=1;rounded=0;" edge="1" parent="1" source="oekWoN-RT_hTgnHbILEL-23" target="oekWoN-RT_hTgnHbILEL-30">
          <mxGeometry width="50" height="50" relative="1" as="geometry">
            <mxPoint x="400" y="447" as="sourcePoint" />
            <mxPoint x="308" y="477" as="targetPoint" />
          </mxGeometry>
        </mxCell>
        <mxCell id="oekWoN-RT_hTgnHbILEL-56" value="이름" style="ellipse;whiteSpace=wrap;html=1;align=center;" vertex="1" parent="1">
          <mxGeometry x="530" y="600" width="100" height="40" as="geometry" />
        </mxCell>
        <mxCell id="oekWoN-RT_hTgnHbILEL-57" value="" style="endArrow=none;html=1;rounded=0;" edge="1" parent="1" source="oekWoN-RT_hTgnHbILEL-16" target="oekWoN-RT_hTgnHbILEL-56">
          <mxGeometry relative="1" as="geometry">
            <mxPoint x="440" y="440" as="sourcePoint" />
            <mxPoint x="440" y="530" as="targetPoint" />
          </mxGeometry>
        </mxCell>
        <mxCell id="oekWoN-RT_hTgnHbILEL-58" value="" style="endArrow=none;html=1;rounded=0;" edge="1" parent="1" source="oekWoN-RT_hTgnHbILEL-16" target="oekWoN-RT_hTgnHbILEL-29">
          <mxGeometry relative="1" as="geometry">
            <mxPoint x="450" y="450" as="sourcePoint" />
            <mxPoint x="450" y="540" as="targetPoint" />
          </mxGeometry>
        </mxCell>
        <mxCell id="oekWoN-RT_hTgnHbILEL-59" value="포인트" style="ellipse;whiteSpace=wrap;html=1;align=center;" vertex="1" parent="1">
          <mxGeometry x="190" y="490" width="100" height="40" as="geometry" />
        </mxCell>
        <mxCell id="oekWoN-RT_hTgnHbILEL-60" value="" style="endArrow=none;html=1;rounded=0;" edge="1" parent="1" source="oekWoN-RT_hTgnHbILEL-1" target="oekWoN-RT_hTgnHbILEL-59">
          <mxGeometry width="50" height="50" relative="1" as="geometry">
            <mxPoint x="425" y="455" as="sourcePoint" />
            <mxPoint x="333" y="485" as="targetPoint" />
          </mxGeometry>
        </mxCell>
        <mxCell id="oekWoN-RT_hTgnHbILEL-61" value="" style="shape=link;html=1;rounded=0;" edge="1" parent="1" source="oekWoN-RT_hTgnHbILEL-15" target="oekWoN-RT_hTgnHbILEL-45">
          <mxGeometry relative="1" as="geometry">
            <mxPoint x="340" y="580" as="sourcePoint" />
            <mxPoint x="500" y="550" as="targetPoint" />
          </mxGeometry>
        </mxCell>
        <mxCell id="oekWoN-RT_hTgnHbILEL-62" value="N" style="resizable=0;html=1;whiteSpace=wrap;align=right;verticalAlign=bottom;" connectable="0" vertex="1" parent="oekWoN-RT_hTgnHbILEL-61">
          <mxGeometry x="1" relative="1" as="geometry">
            <mxPoint x="-40" as="offset" />
          </mxGeometry>
        </mxCell>
        <mxCell id="oekWoN-RT_hTgnHbILEL-63" value="" style="shape=link;html=1;rounded=0;" edge="1" parent="1" source="oekWoN-RT_hTgnHbILEL-45" target="oekWoN-RT_hTgnHbILEL-5">
          <mxGeometry relative="1" as="geometry">
            <mxPoint x="880" y="370.5" as="sourcePoint" />
            <mxPoint x="1010" y="370" as="targetPoint" />
          </mxGeometry>
        </mxCell>
        <mxCell id="oekWoN-RT_hTgnHbILEL-64" value="1" style="resizable=0;html=1;whiteSpace=wrap;align=right;verticalAlign=bottom;" connectable="0" vertex="1" parent="oekWoN-RT_hTgnHbILEL-63">
          <mxGeometry x="1" relative="1" as="geometry">
            <mxPoint x="-40" as="offset" />
          </mxGeometry>
        </mxCell>
        <mxCell id="oekWoN-RT_hTgnHbILEL-66" value="사원번호" style="ellipse;whiteSpace=wrap;html=1;align=center;fontStyle=4;" vertex="1" parent="1">
          <mxGeometry x="880" y="170" width="100" height="40" as="geometry" />
        </mxCell>
        <mxCell id="oekWoN-RT_hTgnHbILEL-67" value="계약기간" style="ellipse;whiteSpace=wrap;html=1;align=center;" vertex="1" parent="1">
          <mxGeometry x="1010" y="320" width="100" height="40" as="geometry" />
        </mxCell>
        <mxCell id="oekWoN-RT_hTgnHbILEL-68" value="공급량" style="ellipse;whiteSpace=wrap;html=1;align=center;" vertex="1" parent="1">
          <mxGeometry x="1140" y="320" width="100" height="40" as="geometry" />
        </mxCell>
        <mxCell id="oekWoN-RT_hTgnHbILEL-69" value="차량번호" style="ellipse;whiteSpace=wrap;html=1;align=center;" vertex="1" parent="1">
          <mxGeometry x="1140" y="270" width="100" height="40" as="geometry" />
        </mxCell>
        <mxCell id="oekWoN-RT_hTgnHbILEL-70" value="연락처" style="ellipse;whiteSpace=wrap;html=1;align=center;" vertex="1" parent="1">
          <mxGeometry x="1140" y="220" width="100" height="40" as="geometry" />
        </mxCell>
        <mxCell id="oekWoN-RT_hTgnHbILEL-71" value="이름" style="ellipse;whiteSpace=wrap;html=1;align=center;" vertex="1" parent="1">
          <mxGeometry x="1140" y="170" width="100" height="40" as="geometry" />
        </mxCell>
        <mxCell id="oekWoN-RT_hTgnHbILEL-72" value="정유사" style="ellipse;whiteSpace=wrap;html=1;align=center;" vertex="1" parent="1">
          <mxGeometry x="1010" y="170" width="100" height="40" as="geometry" />
        </mxCell>
        <mxCell id="oekWoN-RT_hTgnHbILEL-73" value="" style="endArrow=none;html=1;rounded=0;" edge="1" parent="1" source="oekWoN-RT_hTgnHbILEL-67" target="oekWoN-RT_hTgnHbILEL-5">
          <mxGeometry relative="1" as="geometry">
            <mxPoint x="667" y="580" as="sourcePoint" />
            <mxPoint x="694" y="611" as="targetPoint" />
          </mxGeometry>
        </mxCell>
        <mxCell id="oekWoN-RT_hTgnHbILEL-74" value="" style="endArrow=none;html=1;rounded=0;" edge="1" parent="1" source="oekWoN-RT_hTgnHbILEL-66" target="oekWoN-RT_hTgnHbILEL-5">
          <mxGeometry relative="1" as="geometry">
            <mxPoint x="1070" y="360" as="sourcePoint" />
            <mxPoint x="1070" y="300" as="targetPoint" />
          </mxGeometry>
        </mxCell>
        <mxCell id="oekWoN-RT_hTgnHbILEL-75" value="" style="endArrow=none;html=1;rounded=0;" edge="1" parent="1" source="oekWoN-RT_hTgnHbILEL-5" target="oekWoN-RT_hTgnHbILEL-72">
          <mxGeometry relative="1" as="geometry">
            <mxPoint x="1060" y="280" as="sourcePoint" />
            <mxPoint x="1080" y="310" as="targetPoint" />
          </mxGeometry>
        </mxCell>
        <mxCell id="oekWoN-RT_hTgnHbILEL-76" value="" style="endArrow=none;html=1;rounded=0;" edge="1" parent="1" source="oekWoN-RT_hTgnHbILEL-5" target="oekWoN-RT_hTgnHbILEL-71">
          <mxGeometry relative="1" as="geometry">
            <mxPoint x="1090" y="380" as="sourcePoint" />
            <mxPoint x="1090" y="320" as="targetPoint" />
          </mxGeometry>
        </mxCell>
        <mxCell id="oekWoN-RT_hTgnHbILEL-77" value="" style="endArrow=none;html=1;rounded=0;" edge="1" parent="1" source="oekWoN-RT_hTgnHbILEL-5" target="oekWoN-RT_hTgnHbILEL-70">
          <mxGeometry relative="1" as="geometry">
            <mxPoint x="1100" y="390" as="sourcePoint" />
            <mxPoint x="1100" y="330" as="targetPoint" />
          </mxGeometry>
        </mxCell>
        <mxCell id="oekWoN-RT_hTgnHbILEL-78" value="" style="endArrow=none;html=1;rounded=0;" edge="1" parent="1" source="oekWoN-RT_hTgnHbILEL-5" target="oekWoN-RT_hTgnHbILEL-69">
          <mxGeometry relative="1" as="geometry">
            <mxPoint x="1110" y="400" as="sourcePoint" />
            <mxPoint x="1110" y="340" as="targetPoint" />
          </mxGeometry>
        </mxCell>
        <mxCell id="oekWoN-RT_hTgnHbILEL-79" value="" style="endArrow=none;html=1;rounded=0;" edge="1" parent="1" source="oekWoN-RT_hTgnHbILEL-5" target="oekWoN-RT_hTgnHbILEL-68">
          <mxGeometry relative="1" as="geometry">
            <mxPoint x="1120" y="410" as="sourcePoint" />
            <mxPoint x="1120" y="350" as="targetPoint" />
          </mxGeometry>
        </mxCell>
        <mxCell id="oekWoN-RT_hTgnHbILEL-80" value="구매" style="shape=rhombus;perimeter=rhombusPerimeter;whiteSpace=wrap;html=1;align=center;" vertex="1" parent="1">
          <mxGeometry x="370" y="520" width="120" height="60" as="geometry" />
        </mxCell>
        <mxCell id="oekWoN-RT_hTgnHbILEL-81" value="" style="shape=link;html=1;rounded=0;" edge="1" parent="1" source="oekWoN-RT_hTgnHbILEL-80" target="oekWoN-RT_hTgnHbILEL-23">
          <mxGeometry relative="1" as="geometry">
            <mxPoint x="520" y="550" as="sourcePoint" />
            <mxPoint x="680" y="550" as="targetPoint" />
          </mxGeometry>
        </mxCell>
        <mxCell id="oekWoN-RT_hTgnHbILEL-82" value="N" style="resizable=0;html=1;whiteSpace=wrap;align=right;verticalAlign=bottom;" connectable="0" vertex="1" parent="oekWoN-RT_hTgnHbILEL-81">
          <mxGeometry x="1" relative="1" as="geometry">
            <mxPoint x="-10" y="-30" as="offset" />
          </mxGeometry>
        </mxCell>
        <mxCell id="oekWoN-RT_hTgnHbILEL-83" value="" style="endArrow=none;html=1;rounded=0;" edge="1" parent="1" source="oekWoN-RT_hTgnHbILEL-80" target="oekWoN-RT_hTgnHbILEL-1">
          <mxGeometry relative="1" as="geometry">
            <mxPoint x="510" y="740" as="sourcePoint" />
            <mxPoint x="670" y="740" as="targetPoint" />
          </mxGeometry>
        </mxCell>
        <mxCell id="oekWoN-RT_hTgnHbILEL-84" value="N" style="resizable=0;html=1;whiteSpace=wrap;align=right;verticalAlign=bottom;" connectable="0" vertex="1" parent="oekWoN-RT_hTgnHbILEL-83">
          <mxGeometry x="1" relative="1" as="geometry">
            <mxPoint x="-5" y="60" as="offset" />
          </mxGeometry>
        </mxCell>
      </root>
    </mxGraphModel>
  </diagram>
</mxfile>
